<svg width="1185" height="1186" xmlns="http://www.w3.org/2000/svg">
  <g fill="none" fill-rule="evenodd">
    <path d="M649.434 15.043a116.239 116.239 0 0 1 44.087 43.991c58.701 103.66 119.007 186.444 180.915 248.353 61.612 61.612 144.16 121.896 247.646 180.854l3.142 1.786c55.841 31.67 75.436 102.612 43.766 158.453a116.239 116.239 0 0 1-43.945 43.868c-102.282 57.768-184.541 117.357-246.78 178.768-62.913 62.077-124.308 146.016-184.184 251.82l-1.814 3.212c-21.113 37.482-59.91 58.74-100.04 59.204V.054c19.407-.042 39.092 4.782 57.207 14.99Z" fill="#FF3600"/>
    <path d="m731.2 447.643 2.344 2.307.922.92.93.918c77.344 76.247 78.233 200.757 1.986 278.102l-.958.966-.966.959-1.207 1.197-1.206 1.207c-38.75 38.971-89.672 58.477-140.606 58.48v-401.11c50.05-.052 100.113 18.638 138.76 56.054Z" fill="#FFB08A"/>
    <g>
      <path d="M535.67 15.018a116.239 116.239 0 0 0-44.086 43.992c-58.702 103.66-119.007 186.443-180.916 248.352-61.612 61.612-144.16 121.897-247.645 180.854l-3.143 1.786C4.04 521.672-15.556 592.614 16.114 648.456a116.239 116.239 0 0 0 43.946 43.867c102.281 57.768 184.54 117.358 246.779 178.768 62.914 62.077 124.308 146.017 184.185 251.82l1.814 3.212c21.113 37.483 59.91 58.74 100.04 59.204V.03c-19.407-.043-39.092 4.781-57.207 14.988Z" fill="#FFB08A"/>
      <path d="m453.917 447.618-2.345 2.307-.923.92-.928.919c-77.345 76.246-78.234 200.757-1.987 278.101l.958.966.965.959 1.208 1.197 1.206 1.208c38.75 38.97 89.671 58.476 140.606 58.479v-401.11c-50.05-.051-100.113 18.638-138.76 56.054Z" fill="#FF3600"/>
    </g>
  </g>
</svg>
